<?xml version="1.0" standalone="no"?><!DOCTYPE svg PUBLIC "-//W3C//DTD SVG 1.1//EN" "http://www.w3.org/Graphics/SVG/1.1/DTD/svg11.dtd"><svg t="1568208064284" class="icon" viewBox="0 0 1024 1024" version="1.1" xmlns="http://www.w3.org/2000/svg" p-id="10107" xmlns:xlink="http://www.w3.org/1999/xlink" width="16" height="16"><defs><style type="text/css"></style></defs><path d="M238.88378231 231.06398942h721.13031142V857.9289002c0 80.12559062-61.27250965 141.39810029-141.39810028 141.39810027h-579.73221114V231.06398942z" fill="#FFEECD" p-id="10108"></path><path d="M66.47236584 881.4952507V179.21801886C66.47236584 113.23223963 118.31833639 56.67299953 174.87757652 56.67299953H255.00316574c14.13981003 0 32.99288962 14.13981003 32.99289099 37.70615916s-18.85307957 47.13269964-28.27962007 47.13270101h-47.132701c-37.70616053 0-65.9857806-4.71326955-65.98577921 37.70615916v702.27723184c0 42.41943008 28.27962006 47.13269964 65.98577921 47.13269963h301.64928152V999.32700047H174.87757652C118.31833639 999.32700047 66.47236584 947.4810313 66.47236584 881.4952507z" fill="#F4970C" p-id="10109"></path><path d="M957.2803976 881.4952507V179.21801886c0-65.9857806-51.84597056-117.83174977-108.40521068-117.83174979h-80.12558924c-14.13981003 0-32.99288962 14.13981003-32.99289099 37.70616054s18.85307957 42.41943008 32.99289099 42.41943009h47.13269964c37.70616053 0 65.9857806-4.71326955 65.98578058 37.70615916v702.27723184c0 42.41943008-28.27962006 47.13269964-65.98578058 47.13269963h-301.64928014V999.32700047h334.64216974c61.27250965 0 108.40521067-51.84597056 108.40521068-117.83174977zM401.11453695 150.93839878c-37.70616053 0-70.69905013-32.99288962-70.69905014-70.69905014v-4.71326953c0-37.70616053 32.99288962-65.9857806 70.69905014-65.98578059h226.23696045c37.70616053 0 70.69905013 28.27962006 70.69905014 65.98578059v4.71326953c0 37.70616053-32.99288962 65.9857806-70.69905014 65.98578061h-226.23696045z m14.13981003-89.55212971c-14.13981003 0-18.85307957 4.71326955-18.85308095 14.13981004v4.71326953c0 9.42654048 9.42654048 14.13981003 18.85308095 14.13981005h202.67060994c9.42654048 0 18.85307957-4.71326955 18.85307958-14.13981005v-4.71326953c0-9.42654048-9.42654048-14.13981003-18.85307958-14.13981004h-202.67060994z" fill="#F4970C" p-id="10110"></path><path d="M504.8064767 438.44787028h183.81753035v141.39810028h-183.81753035v-141.39810028z m146.11136983 98.9786702v-61.27251104h-108.4052093v65.98578059h108.4052093z m-4.71326956 47.13269964l42.41943008 9.42654048c-9.42654048 32.99288962-18.85307957 61.27250965-32.99288959 84.83886015h61.27250966v37.70615916h-245.09004002v-37.70615916h136.68482934c14.13981003-23.56635051 28.27962006-56.55924012 37.70616053-94.26540063z m-94.26540065 4.71326953c9.42654048 23.56635051 18.85307957 51.84597056 28.27962007 80.12559064l-37.70615916 9.42654046c-4.71326955-28.27962006-14.13981003-51.84597056-23.5663505-80.12559062l32.99288959-9.42654048z m-164.96444939-146.11136982c-9.42654048 18.85307957-18.85307957 37.70616053-32.99289099 51.84597055l-28.27962006-28.27962003c23.56635051-32.99288962 37.70616053-70.69905013 47.13270102-117.83175116l37.70615915 9.42654047c-4.71326955 18.85307957-9.42654048 32.99288962-14.13981002 47.13269963h89.55213109v37.70616054h-37.70616053c0 28.27962006 0 51.84597056-4.71326956 70.69905014h47.13269964v37.70616054h-51.84597056c0 9.42654048-4.71326955 23.56635051-4.71326956 28.27962005 18.85307957 18.85307957 42.41943008 37.70616053 61.27250967 61.27250965l-23.56634912 37.70616054c-18.85307957-23.56635051-32.99288962-42.41943008-47.13270103-61.27251103-14.13981003 42.41943008-37.70616053 75.41231969-70.69905013 103.69194113l-23.56634913-32.99289099c28.27962006-28.27962006 51.84597056-65.9857806 65.98577922-113.11848022 0-9.42654048 4.71326955-14.13981003 4.71327092-23.56634913h-70.69905014v-37.70616054h75.41231969c0-23.56635051 4.71326955-47.13269964 4.71326955-70.69905014h-23.56634912z m103.69193974-75.41231969h216.81041996v37.70615915H490.66666667v-37.70615915z" fill="#F4970C" p-id="10111"></path></svg>